<svg width="20" height="20" viewBox="0 0 20 20" fill="none" xmlns="http://www.w3.org/2000/svg">
<path d="M13.3182 2.44003C13.0369 2.15883 12.6555 2.00085 12.2577 2.00085C11.86 2.00085 11.4785 2.15883 11.1972 2.44003L2.43723 11.199C2.15602 11.4803 1.99805 11.8618 1.99805 12.2595C1.99805 12.6573 2.15602 13.0387 2.43723 13.32L6.68023 17.563C6.99323 17.876 7.41023 18.022 7.82023 18H14.0852C14.2032 18.3336 14.4353 18.6148 14.7405 18.7938C15.0457 18.9729 15.4043 19.0383 15.7531 18.9784C16.1018 18.9186 16.4182 18.7374 16.6463 18.4669C16.8744 18.1963 16.9994 17.8539 16.9994 17.5C16.9994 17.1462 16.8744 16.8037 16.6463 16.5332C16.4182 16.2627 16.1018 16.0815 15.7531 16.0216C15.4043 15.9618 15.0457 16.0272 14.7405 16.2062C14.4353 16.3853 14.2032 16.6664 14.0852 17H9.36523L17.5612 8.80303C17.8424 8.52174 18.0004 8.14028 18.0004 7.74253C18.0004 7.34479 17.8424 6.96333 17.5612 6.68203L13.3182 2.43903V2.44003ZM11.9042 3.14603C11.998 3.0523 12.1251 2.99964 12.2577 2.99964C12.3903 2.99964 12.5175 3.0523 12.6112 3.14603L16.8542 7.38903C16.948 7.4828 17.0006 7.60995 17.0006 7.74253C17.0006 7.87512 16.948 8.00227 16.8542 8.09603L10.4882 14.462L5.53823 9.51203L11.9042 3.14603ZM4.83123 10.22L9.78123 15.17L8.09423 16.857C8.00046 16.9508 7.87331 17.0034 7.74073 17.0034C7.60814 17.0034 7.48099 16.9508 7.38723 16.857L3.14423 12.614C3.05049 12.5203 2.99783 12.3931 2.99783 12.2605C2.99783 12.128 3.05049 12.0008 3.14423 11.907L4.83123 10.22Z" fill="#1F2937"/>
</svg>
