<svg width="110" height="32" viewBox="0 0 110 32" fill="none" xmlns="http://www.w3.org/2000/svg">
<path d="M22.4589 18.4431C19.1477 24.5422 14.3319 29.4285 7.68929 31.9849H0V20.8788L22.4589 18.4431Z" fill="#8D9BB5"/>
<path d="M27.9491 0C27.3478 5.62989 25.8601 11.1292 23.5409 16.2944L0 18.8508V0H27.9491Z" fill="#8D9BB5"/>
<path d="M31.9902 0V15.3785L25.8911 16.0377C28.0554 10.9273 29.4413 5.52136 30.0025 0H31.9902Z" fill="#D7DDE4"/>
<path d="M31.9896 17.4064V32H12.2783C16.2077 29.7199 19.575 26.5866 22.1315 22.8312C23.155 21.3518 24.0747 19.8032 24.8841 18.1965L31.9896 17.4064Z" fill="#D7DDE4"/>
<path d="M51.555 18.7051L52.1689 23.6569H49.4515L49.0389 19.5807C49.0384 18.9206 48.7865 18.2854 48.3343 17.8043C47.7883 17.4149 47.1198 17.2361 46.4523 17.3011H42.6378V23.6769H39.9858V8.07693H47.2474C48.8107 8.07693 50.0101 8.45772 50.8454 9.21927C51.2627 9.60947 51.5903 10.0856 51.8058 10.6147C52.0212 11.1438 52.1194 11.7133 52.0934 12.284C52.1301 13.1819 51.8682 14.0667 51.3487 14.8001C50.8158 15.4856 50.0648 15.9685 49.22 16.1688C49.8402 16.2617 50.41 16.5639 50.8348 17.0253C51.2595 17.4866 51.5136 18.0794 51.555 18.7051ZM42.6378 15.0668H46.4271C47.2314 15.1209 48.0287 14.8872 48.6765 14.4075C48.9357 14.1839 49.1403 13.9039 49.2746 13.5891C49.4089 13.2742 49.4694 12.9328 49.4515 12.591C49.4698 12.2796 49.4194 11.968 49.3037 11.6784C49.188 11.3888 49.01 11.1282 48.7822 10.9152C48.2283 10.4759 47.5298 10.2604 46.8247 10.3113H42.6378V15.0668Z" fill="#D7DDE4"/>
<path d="M62.2287 18.4788V12.3244H64.7952V23.6319H62.3445L62.2992 22.0517C61.9349 22.6512 61.415 23.1409 60.7948 23.4687C60.1746 23.7965 59.4772 23.9503 58.7766 23.9137C58.2708 23.946 57.7638 23.8731 57.2875 23.6999C56.8112 23.5267 56.3758 23.2569 56.0089 22.9073C55.6606 22.523 55.3923 22.0732 55.2195 21.5842C55.0467 21.0952 54.9729 20.5767 55.0024 20.0589V12.3446H57.5689V19.5105C57.5689 20.9396 58.218 21.6593 59.5214 21.6593C59.8865 21.6713 60.2498 21.6036 60.5861 21.4611C60.9224 21.3186 61.2236 21.1046 61.4689 20.8339C62.0138 20.1748 62.2857 19.3321 62.2287 18.4788Z" fill="#D7DDE4"/>
<path d="M73.4151 14.2507L71.0953 14.1652V20.4505C71.0625 20.7561 71.1491 21.0626 71.3368 21.3059C71.5717 21.4912 71.8695 21.5778 72.1671 21.5475H73.4151V23.6309H71.4022C70.3958 23.6309 69.6711 23.4094 69.2233 22.9616C68.7241 22.3506 68.4838 21.5684 68.554 20.7826V14.1753L66.9336 14.2406V12.3134L68.554 12.3787V8.82607H71.1204V12.3787L73.4403 12.3134L73.4151 14.2507Z" fill="#D7DDE4"/>
<path d="M78.0748 10.5278H75.5083V8.01167H78.0748V10.5278ZM78.0748 23.6116H75.5083V12.3042H78.0748V23.6116Z" fill="#D7DDE4"/>
<path d="M83.7061 23.6318H81.1396V8.03181H83.7061V23.6318Z" fill="#D7DDE4"/>
<path d="M97.0921 18.041V18.7053H88.7436C88.7439 19.5862 89.0599 20.4378 89.6343 21.1057C89.9152 21.3892 90.2525 21.6105 90.6244 21.7553C90.9963 21.9 91.3945 21.9651 91.7931 21.9461C92.3746 21.9804 92.9505 21.8171 93.4274 21.4828C93.9043 21.1484 94.2541 20.6626 94.42 20.1043L96.8757 20.3257C96.5879 21.4169 95.9341 22.3762 95.0238 23.0432C94.0736 23.6907 92.9425 24.0202 91.7931 23.9842C91.0215 24.0234 90.2507 23.8927 89.5351 23.6015C88.8194 23.3102 88.1765 22.8653 87.6516 22.2983C86.679 21.0802 86.1455 19.5699 86.1373 18.0112C86.1291 16.4525 86.6466 14.9366 87.6063 13.7083C88.1105 13.16 88.7284 12.7286 89.4169 12.4444C90.1054 12.1601 90.8477 12.0299 91.5918 12.0628C92.3324 12.0317 93.0711 12.1583 93.7591 12.4342C94.447 12.7101 95.0685 13.1289 95.5824 13.663C96.5889 14.7298 97.0921 16.1892 97.0921 18.041ZM93.6299 14.755C93.3688 14.5035 93.0593 14.3079 92.7202 14.1799C92.381 14.0518 92.0194 13.9941 91.6573 14.0102C91.2887 13.9909 90.9201 14.047 90.574 14.1751C90.2279 14.3031 89.9116 14.5004 89.6444 14.755C89.0895 15.3353 88.7703 16.1012 88.7486 16.9037H94.5508C94.495 16.1041 94.1705 15.3468 93.6299 14.755Z" fill="#D7DDE4"/>
<path d="M109.235 23.632H106.628C106.484 23.0348 106.388 22.597 106.341 22.3185C105.896 22.8603 105.329 23.2894 104.686 23.5709C104.043 23.8525 103.343 23.9785 102.643 23.9389C101.623 23.993 100.62 23.6687 99.8247 23.0281C99.4782 22.7209 99.2048 22.3399 99.0245 21.9132C98.8443 21.4865 98.7618 21.0249 98.7831 20.5623C98.7831 18.6634 99.9958 17.5094 102.421 17.1001L105.944 16.5113L106.251 16.4207V15.4143C106.251 14.4078 105.506 13.9046 104.017 13.9046C103.446 13.8653 102.877 14.0119 102.396 14.3223C102.2 14.4865 102.04 14.6899 101.926 14.9195C101.812 15.1492 101.748 15.3999 101.737 15.6558H99.3265C99.548 13.2303 101.128 12.0175 104.082 12.0175C107.192 12.0175 108.749 13.3175 108.752 15.9175V21.0052C108.764 21.9017 108.928 22.7898 109.235 23.632ZM103.297 22.0116C104.073 22.0352 104.83 21.7698 105.421 21.2669C105.693 21.039 105.912 20.7531 106.06 20.4301C106.208 20.1071 106.282 19.755 106.276 19.3998V18.2022L103.141 18.7507C101.927 18.9721 101.321 19.5273 101.324 20.4163C101.311 20.636 101.35 20.8556 101.437 21.0575C101.525 21.2594 101.658 21.438 101.828 21.5788C102.253 21.8875 102.772 22.0403 103.297 22.0116Z" fill="#D7DDE4"/>
</svg>
