<svg width="110" height="32" viewBox="0 0 110 32" fill="none" xmlns="http://www.w3.org/2000/svg">
<path d="M22.4589 18.4431C19.1477 24.5422 14.3319 29.4285 7.68929 31.9849H0V20.8788L22.4589 18.4431Z" fill="#2C2E36"/>
<path d="M27.9491 0C27.3478 5.62989 25.8601 11.1292 23.5409 16.2944L0 18.8508V0H27.9491Z" fill="#2C2E36"/>
<path d="M31.9902 0V15.3785L25.8911 16.0377C28.0554 10.9273 29.4413 5.52136 30.0025 0H31.9902Z" fill="#8D9BB5"/>
<path d="M31.9896 17.4065V32H12.2783C16.2077 29.72 19.575 26.5867 22.1315 22.8313C23.155 21.3518 24.0747 19.8032 24.8841 18.1966L31.9896 17.4065Z" fill="#8D9BB5"/>
<path d="M51.555 18.7051L52.1689 23.6569H49.4515L49.0389 19.5807C49.0384 18.9205 48.7865 18.2853 48.3343 17.8043C47.7883 17.4148 47.1198 17.2361 46.4523 17.3011H42.6378V23.6769H39.9858V8.0769H47.2474C48.8107 8.0769 50.0101 8.45769 50.8454 9.21923C51.2627 9.60944 51.5903 10.0856 51.8058 10.6147C52.0212 11.1437 52.1194 11.7132 52.0934 12.2839C52.1301 13.1819 51.8682 14.0667 51.3487 14.8C50.8158 15.4855 50.0648 15.9685 49.22 16.1688C49.8402 16.2616 50.41 16.5639 50.8348 17.0252C51.2595 17.4866 51.5136 18.0793 51.555 18.7051ZM42.6378 15.0668H46.4271C47.2314 15.1209 48.0287 14.8872 48.6765 14.4075C48.9357 14.1839 49.1403 13.9039 49.2746 13.589C49.4089 13.2742 49.4694 12.9328 49.4515 12.5909C49.4698 12.2796 49.4194 11.968 49.3037 11.6784C49.188 11.3887 49.01 11.1282 48.7822 10.9152C48.2283 10.4759 47.5298 10.2604 46.8247 10.3113H42.6378V15.0668Z" fill="#2C2E36"/>
<path d="M62.2287 18.4789V12.3245H64.7952V23.6319H62.3445L62.2992 22.0517C61.9349 22.6512 61.415 23.1409 60.7948 23.4688C60.1746 23.7966 59.4772 23.9504 58.7766 23.9137C58.2708 23.946 57.7638 23.8732 57.2875 23.7C56.8112 23.5268 56.3758 23.2569 56.0089 22.9073C55.6606 22.523 55.3923 22.0732 55.2195 21.5842C55.0467 21.0953 54.9729 20.5767 55.0024 20.059V12.3446H57.5689V19.5105C57.5689 20.9397 58.218 21.6593 59.5214 21.6593C59.8865 21.6713 60.2498 21.6037 60.5861 21.4611C60.9224 21.3186 61.2236 21.1046 61.4689 20.834C62.0138 20.1749 62.2857 19.3322 62.2287 18.4789Z" fill="#2C2E36"/>
<path d="M73.4151 14.2507L71.0953 14.1652V20.4505C71.0625 20.7561 71.1491 21.0626 71.3368 21.3059C71.5717 21.4912 71.8695 21.5778 72.1671 21.5475H73.4151V23.6309H71.4022C70.3958 23.6309 69.6711 23.4094 69.2233 22.9616C68.7241 22.3506 68.4838 21.5684 68.554 20.7826V14.1753L66.9336 14.2406V12.3134L68.554 12.3787V8.82605H71.1204V12.3787L73.4403 12.3134L73.4151 14.2507Z" fill="#2C2E36"/>
<path d="M78.0748 10.5278H75.5083V8.01172H78.0748V10.5278ZM78.0748 23.6117H75.5083V12.3042H78.0748V23.6117Z" fill="#2C2E36"/>
<path d="M83.7061 23.6318H81.1396V8.03186H83.7061V23.6318Z" fill="#2C2E36"/>
<path d="M97.0921 18.041V18.7053H88.7436C88.7439 19.5862 89.0599 20.4378 89.6343 21.1057C89.9152 21.3892 90.2525 21.6104 90.6244 21.7552C90.9963 21.9 91.3945 21.965 91.7931 21.946C92.3746 21.9804 92.9505 21.8171 93.4274 21.4827C93.9043 21.1483 94.2541 20.6626 94.42 20.1043L96.8757 20.3256C96.5879 21.4168 95.9341 22.3762 95.0238 23.0431C94.0736 23.6907 92.9425 24.0201 91.7931 23.9841C91.0215 24.0233 90.2507 23.8927 89.5351 23.6014C88.8194 23.3101 88.1765 22.8652 87.6516 22.2982C86.679 21.0802 86.1455 19.5698 86.1373 18.0111C86.1291 16.4524 86.6466 14.9365 87.6063 13.7083C88.1105 13.16 88.7284 12.7286 89.4169 12.4443C90.1054 12.1601 90.8477 12.0298 91.5918 12.0627C92.3324 12.0317 93.0711 12.1583 93.7591 12.4341C94.447 12.71 95.0685 13.1288 95.5824 13.6629C96.5889 14.7298 97.0921 16.1891 97.0921 18.041ZM93.6299 14.7549C93.3688 14.5035 93.0593 14.3078 92.7202 14.1798C92.381 14.0518 92.0194 13.994 91.6573 14.0101C91.2887 13.9908 90.9201 14.047 90.574 14.175C90.2279 14.3031 89.9116 14.5004 89.6444 14.7549C89.0895 15.3352 88.7703 16.1011 88.7486 16.9037H94.5508C94.495 16.1041 94.1705 15.3468 93.6299 14.7549Z" fill="#2C2E36"/>
<path d="M109.235 23.632H106.628C106.484 23.0349 106.388 22.597 106.341 22.3186C105.896 22.8604 105.329 23.2895 104.686 23.571C104.043 23.8525 103.343 23.9785 102.643 23.9389C101.623 23.9931 100.62 23.6688 99.8247 23.0282C99.4782 22.7209 99.2048 22.3399 99.0245 21.9133C98.8443 21.4866 98.7618 21.025 98.7831 20.5623C98.7831 18.6635 99.9958 17.5095 102.421 17.1002L105.944 16.5113L106.251 16.4208V15.4143C106.251 14.4079 105.506 13.9047 104.017 13.9047C103.446 13.8654 102.877 14.0119 102.396 14.3224C102.2 14.4866 102.04 14.69 101.926 14.9196C101.812 15.1492 101.748 15.4 101.737 15.6559H99.3265C99.548 13.2303 101.128 12.0176 104.082 12.0176C107.192 12.0176 108.749 13.3176 108.752 15.9176V21.0052C108.764 21.9018 108.928 22.7898 109.235 23.632ZM103.297 22.0117C104.073 22.0353 104.83 21.7699 105.421 21.2669C105.693 21.0391 105.912 20.7531 106.06 20.4301C106.208 20.1071 106.282 19.7551 106.276 19.3998V18.2022L103.141 18.7508C101.927 18.9722 101.321 19.5273 101.324 20.4164C101.311 20.636 101.35 20.8556 101.437 21.0576C101.525 21.2595 101.658 21.4381 101.828 21.5789C102.253 21.8875 102.772 22.0404 103.297 22.0117Z" fill="#2C2E36"/>
</svg>
