<svg width="20" height="20" viewBox="0 0 20 20" fill="none" xmlns="http://www.w3.org/2000/svg">
<path d="M18.3337 9.99996V7.49996C18.3337 3.33329 16.667 1.66663 12.5003 1.66663H7.50033C3.33366 1.66663 1.66699 3.33329 1.66699 7.49996V12.5C1.66699 16.6666 3.33366 18.3333 7.50033 18.3333H10.0003" stroke="#1F2937" stroke-linecap="round" stroke-linejoin="round"/>
<path d="M17.4667 14.8666L16.1084 15.3249C15.7334 15.4499 15.4334 15.7416 15.3084 16.125L14.8501 17.4833C14.4584 18.6583 12.8084 18.6333 12.4417 17.4583L10.9001 12.4999C10.6001 11.5166 11.5084 10.6 12.4834 10.9083L17.4501 12.4499C18.6167 12.8166 18.6334 14.475 17.4667 14.8666Z" stroke="#1F2937" stroke-linecap="round" stroke-linejoin="round"/>
</svg>
